# xmcd
#
# Track frame offsets:
#   150
#   19125
#   33170
#   45005
#   61332
#   78608
#   93369
#   106714
#   124595
#   145859
#   160888
#   177964
#
# Disc length: 2664 seconds
#
# Revision: 0
# Processed by: cddbd v1.5.1PL2 Copyright (c) Steve Scherf et al.
# Submitted via: GXTranscoder 2.0.1939
#
DISCID=890a660c
DTITLE=Carpenters - Vol 2
DYEAR=1900
DGENRE=Country
TTITLE0=Only Yesterday
TTITLE1=Help
TTITLE2=Breaking Up is Hard To Do
TTITLE3=Rainy Days And Mondays
TTITLE4=I Won't Last A Day With Out You
TTITLE5=Bless The Beast And Children
TTITLE6=It's Going To Take Some Time
TTITLE7=Goodbye To Love
TTITLE8=Solitaire
TTITLE9=Mister Guder
TTITLE10=All You Get From Love Is A Love Song
TTITLE11=This Masquerde
EXTD=
EXTT0=
EXTT1=
EXTT2=
EXTT3=
EXTT4=
EXTT5=
EXTT6=
EXTT7=
EXTT8=
EXTT9=
EXTT10=
EXTT11=
PLAYORDER=
